<svg version="1.1" id="Layer_1" xmlns="http://www.w3.org/2000/svg" xmlns:xlink="http://www.w3.org/1999/xlink" x="0px" y="0px" viewBox="0 0 500 500" style="width: 215px;" xml:space="preserve" data-imageid="businesswoman-34" imageName="Businesswoman" class="illustrations_image">
<style type="text/css">
	.st0_businesswoman-34{fill:#FF4F5A;}
	.st1_businesswoman-34{opacity:0.32;fill:url(#SVGID_1_);enable-background:new    ;}
	.st2_businesswoman-34{fill:#BC6F13;}
	.st3_businesswoman-34{opacity:0.5;fill:#131929;enable-background:new    ;}
	.st4_businesswoman-34{fill:#68E1FD;}
	.st5_businesswoman-34{fill:#FD9661;}
	.st6_businesswoman-34{fill:#FFB288;}
	.st7_businesswoman-34{fill:#F7931E;}
	.st8_businesswoman-34{fill:#131929;}
	.st9_businesswoman-34{opacity:0.7;fill:#131929;enable-background:new    ;}
	.st10_businesswoman-34{opacity:0.2;fill:#131929;enable-background:new    ;}
	.st11_businesswoman-34{opacity:0.32;fill:url(#SVGID_00000101089545002304075610000011129091058341582726_);enable-background:new    ;}
	.st12_businesswoman-34{fill:#2C9135;}
</style>
<path id="field_businesswoman-34" class="st0_businesswoman-34" d="M274.4,183.9l180.1,104.8c5.5,3.2,7.3,10.2,4.1,15.7c-1,1.8-2.5,3.2-4.3,4.2L233.9,431.9&#xA;&#9;c-5.4,3-12,3.1-17.5,0.1L47.1,340.9c-6.7-3.6-9.2-12-5.6-18.7c1.2-2.2,3-4.1,5.2-5.4L274.4,183.9z"/>
<g id="businesswoman_businesswoman-34">
	
		<linearGradient id="SVGID_1_-businesswoman-34" gradientUnits="userSpaceOnUse" x1="231.001" y1="139.2489" x2="187.451" y2="97.699" gradientTransform="matrix(1 0 0 -1 0 502)">
		<stop offset="1.000000e-02" style="stop-color:#A91D5C"/>
		<stop offset="1" style="stop-color:#F15A24"/>
	</linearGradient>
	<polyline class="st1_businesswoman-34" points="270.1,353.2 197.2,412.9 170.7,392.5 254.9,333.9 &#9;"/>
	<path class="st2_businesswoman-34" d="M212.6,137.6c-0.8,2.3-2.5,50.9-2.5,50.9l9.9,5.2l6.3-32.3l-5-19.3"/>
	<path class="st3_businesswoman-34" d="M212.6,137.6c-0.8,2.3-2.5,50.9-2.5,50.9l9.9,5.2l6.3-32.3l-5-19.3"/>
	<path class="st4_businesswoman-34 targetColor" d="M215.4,367.6c0.1-0.3,0.3-0.6,0.5-0.9c0.7-1.3,2.2-4.1,3.7-4.6l15.1-13.3c0.8,2.4,1.3,4.9,1.3,7.5&#xA;&#9;&#9;c0,3.7,0.5,16.2-0.4,17.2s-2.7,2.1-3.3,1.9s-1-5.4-1-5.4c-0.8,1.6-1.6,3.3-2.4,5c-1.1,2.4-1.7,4.7-4.1,6.1s-10.9,3.8-12.2-0.4&#xA;&#9;&#9;c-0.1-0.4-0.1-0.9-0.1-1.4C212.7,375.2,213.7,371.3,215.4,367.6z" style="fill: rgb(104, 225, 253);"/>
	<path class="st4_businesswoman-34 targetColor" d="M249.7,364.8c-1.5-1-2.6-2.6-2.8-4.4c-0.3-1.7-0.3-3.5,0.1-5.2c0.5-1.3,1.1-2.6,1.8-3.9c1-2.1,1.8-4.2,2.6-6.4&#xA;&#9;&#9;l6.9-21.5c0.4,0.5,2.2,4,5.6,4.8s4.8,3.2,4.1,6.6s-4.8,6.2-4.3,10.1c0.4,3.3,0.5,6.6,0.3,9.9c0,1.3-1.2,3-1.9,4.1&#xA;&#9;&#9;c-0.9,1.3-2,2.5-3.3,3.4C256.2,364.1,253,365,249.7,364.8z" style="fill: rgb(104, 225, 253);"/>
	<path class="st4_businesswoman-34 targetColor" d="M266.7,333.6c1.3,1,4.4,14.7,3.9,16.4s-2.2,3.8-3,3.5s-5.1-13.5-5.1-13.5" style="fill: rgb(104, 225, 253);"/>
	<path class="st5_businesswoman-34" d="M220,260.3c0,0,13.3,32.5,15.7,38.3s14.2,24.4,14.7,34.1s0,20.2,0,20.2s5.5,2.1,8.5-1.7&#xA;&#9;&#9;c3.1-3.8-0.9-10.7,1.3-14.2s4.1-4.3-1.3-13.8s-16.8-67.7-16.8-67.7"/>
	<path class="st6_businesswoman-34" d="M233.8,266.7c0,0,1.2,25.4,0,34.2s-15.9,61-15,64.1s6.4,4.5,11.2,0s4.8-21.6,7.6-29.9s17.3-24.7,16.9-68.2"/>
	<path class="st7_businesswoman-34" d="M264.3,106.2c0,0,1,11.5,6.6,18.7s18.2,12.2,14.9,23.5s-8.9,8.9-4.7,18s-0.5,14.5-10.3,15.6s-24.5-3-29-24.7"/>
	<path class="st6_businesswoman-34" d="M256.1,148.4c0,0,7.3,29.1,8.6,33.4s-0.7,38.9,0,40.8s7.9,2.7,9.6,0.9s2.3-34.2,1.7-41.3s-3.1-31.8-3.5-32.3"/>
	<path class="st8_businesswoman-34" d="M232.5,108.5c0,0-6.2-5-13.4-1.5s-3.3,20.5-3.3,20.5"/>
	<path class="st4_businesswoman-34 targetColor" d="M247.7,110.8c0.8,0.2,14.4,7.8,17.4,12.2s10.1,20.8,10,33.6c0,0-14.2,5.1-16.4,2c-1.2-1.7-1.8-7.6-1.8-7.6&#xA;&#9;&#9;s-6.2,3.3-6.2,9s1.3,10.7,7.6,21s5.9,23.7,0.5,38.1s-4.4,47.8-4.4,47.8s-16.6,8.8-33.4,0c0,0-19.1-49.3-8.5-78.8&#xA;&#9;&#9;c8.7-24.5,0.7-32-0.9-44s14.8-38,14.8-38L247.7,110.8z" style="fill: rgb(104, 225, 253);"/>
	<path class="st6_businesswoman-34" d="M231.7,104.8c0,0,1.3,5.4-0.6,8.3s-2.7,12.2,5.7,11.8s10-14.3,9.7-15.6S243,101,243,101"/>
	<path class="st5_businesswoman-34" d="M232.2,108.3l10.8-3.6c0,0,3.2,7,3.5,8.3c0.1,0.6,0,1.3-0.1,1.9C241.1,114.2,235.8,112.2,232.2,108.3z"/>
	<path class="st6_businesswoman-34" d="M225.3,82.1c0,0,1.8,9.7,1.1,12.5s3,13.3,6.2,13.9s11.7-2.8,13.6-9.7S243.3,82,235.7,81S225.3,82.1,225.3,82.1&#xA;&#9;&#9;z"/>
	<path class="st6_businesswoman-34" d="M242,95.8c0.3-1.4,1-2.7,2.1-3.7c1.2-1.2,3.1-1.7,4.4-0.4c2.4,2.4-1.5,6.1-3.7,6.8c-0.8,0.3-1.6-0.1-1.9-0.8&#xA;&#9;&#9;C242.1,97.3,241.8,96.5,242,95.8z"/>
	<path class="st7_businesswoman-34" d="M224.4,72.8c-0.4,1.5-0.7,3-0.6,4.6c0,2.8,0.4,6.7,3.4,8c5.1,2.2,13.9,1.8,14.9,2.6s3.2,5.7,3.4,9&#xA;&#9;&#9;s-5.1,5.8-3.5,11.6s4.7,9,10.2,7.9c3.9-0.6,7.9,0.8,10.6,3.7c1.1,1.2,2.1,2.5,3.2,3.7c0.4,0.4,2,1.8,2.1,2.4&#xA;&#9;&#9;c-0.6-8.5-3.3-16.6-4.3-25.1c-0.9-6.9-1.8-14.1-4-20.8c-2.2-6.3-5.3-12.1-12.2-14.1c-2.4-0.7-6.4-0.6-8.9-0.4&#xA;&#9;&#9;c-3.5,0.2-7.5,0.8-10.6,2.5C226.3,69.3,225,70.9,224.4,72.8z"/>
	<path class="st4_businesswoman-34 targetColor" d="M235.1,347.4c0,0-4,2.9-8.1,2.8s-5.4-1.4-5.4-1.4l0.8-4.5c0,0,9.2,1,13.5-1.2&#xA;&#9;&#9;C235.8,343.1,236.4,345.9,235.1,347.4z" style="fill: rgb(104, 225, 253);"/>
	<path class="st4_businesswoman-34 targetColor" d="M260.2,325.5c0,0-1.8,4.4-9.9,6l-0.8-3.7c0,0,7.9-4.3,9.1-5.3C259.5,323.3,260.1,324.4,260.2,325.5z" style="fill: rgb(104, 225, 253);"/>
	<path class="st2_businesswoman-34" d="M251.7,111c0.8,0,10.3,4.8,16.4,15.3s8.9,37,9.5,55.2s0.6,34.7,0,35.2s-11.9,0.3-13.5-1c0,0-2.6-51.7-5.5-57&#xA;&#9;&#9;l-8.5-19.7"/>
	<path class="st2_businesswoman-34" d="M233.5,182.9c-0.5-8.7-1-17.3-2-26c0-0.5-0.1-1-0.2-1.5c0-7,0-12.9,0.8-16.1c2-8.4,15.6-28.5,15.6-28.5&#xA;&#9;&#9;s3.8,0.5,10.6,6.4c6.8,5.8-7.2,55.3,13.5,87.3c0.9,1.4,4.6,25.1,3.4,26.3s-10.7,5.1-19,5.1c-6.5,0-10.3,3.3-18.5,3.6&#xA;&#9;&#9;C236.8,220.6,234.7,201.7,233.5,182.9z"/>
	<path class="st3_businesswoman-34" d="M255.7,142.9c7.2,23.1,1.9,47.5,5.4,71.1c0.2,1.4-2,2.1-2.2,0.6c-3.5-23.6,1.8-48-5.4-71.1&#xA;&#9;&#9;C253,142.1,255.2,141.5,255.7,142.9z"/>
	<path class="st2_businesswoman-34" d="M260.4,216.6l16.2-1.4c1.5-0.1,1.5,2.2,0,2.3l-16.2,1.4C258.9,219,258.9,216.7,260.4,216.6z"/>
	<path class="st2_businesswoman-34" d="M210,177.6c0.1-1.4,0.3-2.8,0.4-4.2c0.5-6.7-0.5-13.2-0.7-19.9c-0.4-14.4,6.2-27.1,10.7-40.3&#xA;&#9;&#9;c3-3.8,6.2-6.8,9.2-7.4c3.2-0.6-14.8,28.4-14.8,41.4s-0.4,36.6-2.3,41s4.3,47.2,2.3,48.4c-1.7,1.1-6.5-1.9-9.1-4.8&#xA;&#9;&#9;c-0.8-0.9,0.5-6.9,0.6-8.2c0.2-3.2,0.4-6.4,0.6-9.6c0.4-6.4,0.8-12.9,1.2-19.3C208.4,188.9,209.3,183.3,210,177.6z"/>
	<path class="st2_businesswoman-34" d="M229.6,105.7c0,0-6.2-2.7-10.5,1.3s-5.2,5.5-3.6,19.1"/>
	<polygon class="st2_businesswoman-34" points="243.6,253.5 288.1,236.8 299.4,243.7 251.5,266.1 &#9;"/>
	<polyline class="st2_businesswoman-34" points="299.4,243.7 252.7,261.7 250.8,318.3 299.4,296.1 &#9;"/>
	<polyline class="st3_businesswoman-34" points="299.4,243.7 252.7,261.7 250.8,318.3 299.4,296.1 &#9;"/>
	<path class="st8_businesswoman-34" d="M272.3,229.4c13.9-0.9,17.1,16.8,15.4,27c-0.6,3.7-6.2,2.1-5.6-1.5c0.9-4.7,0.4-9.5-1.5-13.8&#xA;&#9;&#9;c-2-4.3-8.7-9.2-11.9-2.8c-1.4,2.8-0.6,7.4-0.4,10.4c0.2,4,0.6,8,1.1,12c0.5,3.7-5.3,3.7-5.8,0C262.5,251.9,258,230.4,272.3,229.4z&#xA;&#9;&#9;"/>
	<path class="st6_businesswoman-34" d="M267.2,217.9c0,0-1.4,9.3-2.3,10.9s-3,5.3-2.3,6.8s3.1-2.2,3.7-3s2.1,2,2.1,3.3s-1.9,4.6-1.5,5.6&#xA;&#9;&#9;s2.4-0.1,2.6-0.4s-0.1,1.6,0.6,2.4s3.1-2.2,3.1-2.2s0.1,2,1.2,2.3s2.4-2.9,2.4-2.9c0,0.7,0.5,1.3,1.2,1.4c1.2,0.2,3.7-5.4,3.5-7.4&#xA;&#9;&#9;s-3.8-9-4.2-10.6s-1.2-7.3-1.2-7.3"/>
	<polygon class="st2_businesswoman-34" points="250.8,318.3 242.2,307.9 243.6,253.5 252.7,261.7 &#9;"/>
	<polygon class="st9_businesswoman-34" points="250.8,318.3 242.2,307.9 243.6,253.5 252.7,261.7 &#9;"/>
	<path class="st2_businesswoman-34" d="M299.4,243.7c0,0-15.1,36.9-23.1,37.3s-23.5-19.3-23.5-19.3L299.4,243.7z"/>
	<path class="st10_businesswoman-34" d="M299.4,243.7c0,0-15.1,36.9-23.1,37.3s-23.5-19.3-23.5-19.3L299.4,243.7z"/>
</g>
<g id="plant_businesswoman-34">
	
		<linearGradient id="SVGID_00000099647330425737889910000011910059849454101405_-businesswoman-34" gradientUnits="userSpaceOnUse" x1="380.8299" y1="194.7701" x2="357.6699" y2="172.6801" gradientTransform="matrix(1 0 0 -1 0 502)">
		<stop offset="1.000000e-02" style="stop-color:#A91D5C"/>
		<stop offset="1" style="stop-color:#F15A24"/>
	</linearGradient>
	
		<polyline style="opacity:0.32;fill:url(#SVGID_00000099647330425737889910000011910059849454101405_);enable-background:new    ;" points="&#xA;&#9;&#9;410.9,310.1 370.1,333.9 340.4,314.2 383.6,286.9 &#9;"/>
	<path class="st4_businesswoman-34 targetColor" d="M411.1,264.2c-1.3-2.7-6.9-4.8-13.6-4.8c-6.9,0-12.6,2.2-13.7,5c-7.9,11.1-15.7,29.1-6,41.3&#xA;&#9;&#9;c4.6,5.8,11.9,8.5,19.1,8.7h1.2c7.2-0.1,14.5-2.9,19.1-8.7C427,293.5,419.1,275.3,411.1,264.2z" style="fill: rgb(104, 225, 253);"/>
	<ellipse class="st3_businesswoman-34" cx="397.5" cy="265.4" rx="13.9" ry="6"/>
	<path class="st12_businesswoman-34" d="M413.7,214.8c-8.6,14.5-13.8,30.8-15.4,47.6c0-20.3-1.9-40.6-5.6-60.6c-0.1-0.7-1.2-0.4-1.1,0.3&#xA;&#9;&#9;c4.2,22.4,6,45.1,5.5,67.9c0,0.3,0.2,0.5,0.5,0.5c0.1,0,0.1,0,0.2,0c0,0.2,0,0.3,0,0.5c0,0.3,0.3,0.6,0.6,0.6&#xA;&#9;&#9;c0.3,0,0.6-0.3,0.6-0.6c0.4-19.6,5.8-38.7,15.8-55.6c0.2-0.3,0.1-0.6-0.2-0.8C414.2,214.5,413.9,214.6,413.7,214.8L413.7,214.8z"/>
	<path class="st12_businesswoman-34" d="M404.9,233.3c0,0,8.6-27.6,27.1-37.9c0,0-3.7,5.5-2,10s4.5,12.5-4.2,17s-13.7,0-13,8.7s4.2,13-1.4,17.2&#xA;&#9;&#9;s-10.4,7.9-12.2,17.1C399.2,265.4,401.3,242.5,404.9,233.3z"/>
	<path class="st12_businesswoman-34" d="M396.7,230.4c0,0-3.6-42.5-11-53.2c0.6,4.1-0.2,8.3-2.1,12c-3.2,6.1-6.7,8.3-4.9,16.3s9.5,6.4,8.7,14.4&#xA;&#9;&#9;s-7.1,6.5-3.9,16.6s13.9,16.8,13.9,16.8"/>
</g>
</svg>