<svg version="1.1" id="Layer_1" xmlns="http://www.w3.org/2000/svg" xmlns:xlink="http://www.w3.org/1999/xlink" x="0px" y="0px" viewBox="0 0 500 500" style="width: 215px;" xml:space="preserve" data-imageid="construction-worker-13" imageName="Construction Worker" class="illustrations_image">
<style type="text/css">
	.st0_construction-worker-13{fill:#FFFFFF;}
	.st1_construction-worker-13{fill:#231F20;}
	.st2_construction-worker-13{fill:#68E1FD;}
	.st3_construction-worker-13{fill:#D1D3D4;}
</style>
<g id="Character_construction-worker-13">
	<path class="st0_construction-worker-13" d="M377.4,110.8c0,0,2.2-8.8,0.5-15.2l-15.6,1.1c0,0,0,14.4,4.4,16.5s11.8-3.1,11.8-3.1"/>
	<path class="st1_construction-worker-13" d="M369.1,114.6c-0.9,0-1.9-0.2-2.7-0.6c-4.6-2.2-4.8-15.7-4.8-17.2c0-0.4,0.3-0.7,0.7-0.7l15.5-1.1&#xA;&#9;&#9;c0.4,0,0.7,0.2,0.8,0.6c1.3,5,0.3,11.3-0.2,14.1c0.3-0.1,0.6,0.1,0.7,0.3c0.2,0.3,0.1,0.8-0.2,1C378.7,111,373.5,114.6,369.1,114.6&#xA;&#9;&#9;z M363.1,97.5c0.1,4.3,0.9,13.8,4,15.2c2.8,1.4,7.4-0.8,9.7-2.2c0.2-1.1,1.8-8.4,0.6-14.1L363.1,97.5z"/>
	<path class="st0_construction-worker-13" d="M334.1,197.2c-5.6,7.7-25.8,49.7-27.2,51.7c-1.9,2.7-7.8,3.5-10.3,5.4c-2.9,2.2-4.9,6.5-6.4,9.8&#xA;&#9;&#9;c-0.6,1.1-0.9,2.4-0.9,3.7c0.1,1.3,1,2.4,2.3,2.7c1.2,0.1,2.2-0.7,3.2-1.4l5.8-4.8c0.6,1.3-0.1,2.8-0.7,4.1s-0.9,3,0.2,4&#xA;&#9;&#9;c0.4,0.3,0.9,0.5,1.4,0.6c3.3,0.7,6.7-1.2,8.8-3.8s4.9-3.8,6.1-6.9c1.4-3.7,7.6-9.7,9.5-13.2c1.3-2.4-3.3-4.1-1.6-6.2l11.2-14.4&#xA;&#9;&#9;l14.2-18.4"/>
	<path class="st1_construction-worker-13" d="M302.9,273.8c-0.5,0-1,0-1.5-0.1c-0.6-0.1-1.2-0.4-1.8-0.8c-1.1-1-1.2-2.8-0.4-4.8l0.1-0.2&#xA;&#9;&#9;c0.3-0.7,0.6-1.4,0.7-2.2l-4.8,4c-1,0.9-2.3,1.8-3.7,1.6c-1.6-0.3-2.8-1.7-2.9-3.4c0-1.4,0.3-2.8,0.9-4.1c1.2-2.7,3.4-7.6,6.6-10.1&#xA;&#9;&#9;c1.4-0.9,2.8-1.5,4.4-2c2.3-0.9,4.8-1.8,5.7-3.2c0.4-0.6,2.9-5.6,5.8-11.3c7-14,17.5-35,21.4-40.4c0.2-0.3,0.7-0.4,1-0.2&#xA;&#9;&#9;c0.3,0.2,0.4,0.7,0.1,1l0,0c-3.8,5.2-14.8,27.1-21.3,40.2c-3.6,7.1-5.4,10.9-5.9,11.5c-1.2,1.8-3.9,2.8-6.4,3.7&#xA;&#9;&#9;c-1.4,0.4-2.7,1-4,1.8c-2.9,2.2-5,6.9-6.1,9.5c-0.6,1-0.8,2.2-0.8,3.4c0,1,0.7,1.8,1.7,2.1c1-0.1,1.9-0.5,2.6-1.3l5.8-4.8&#xA;&#9;&#9;c0.2-0.1,0.4-0.2,0.6-0.1c0.2,0.1,0.4,0.2,0.5,0.4c0.7,1.5,0,3.1-0.6,4.4l-0.1,0.2c-0.2,0.5-0.9,2.4,0,3.2c0.3,0.2,0.7,0.4,1.1,0.5&#xA;&#9;&#9;c2.7,0.5,5.9-0.9,8.1-3.5c0.8-0.9,1.7-1.8,2.6-2.6c1.5-1.1,2.6-2.5,3.4-4.2c0.8-2.1,3.1-5,5.4-7.7c1.5-1.7,2.9-3.6,4.1-5.6&#xA;&#9;&#9;c0.4-0.7,0-1.3-0.8-2.4s-1.9-2.4-0.7-4l25.4-32.8c0.2-0.3,0.7-0.4,1-0.1c0.3,0.2,0.4,0.7,0.1,1c0,0,0,0,0,0l-25.4,32.8&#xA;&#9;&#9;c-0.5,0.6-0.2,1,0.7,2.2c0.8,1,1.8,2.3,1,3.9c-1.3,2.1-2.7,4-4.3,5.9c-2.2,2.6-4.4,5.3-5.1,7.3c-0.8,1.9-2.1,3.5-3.8,4.8&#xA;&#9;&#9;c-0.9,0.7-1.7,1.5-2.4,2.4C309,272.2,306.1,273.7,302.9,273.8z"/>
	<path class="st2_construction-worker-13 targetColor" d="M325.2,157.9c0,0,3.8,35.1,0.5,43.2c-3.7,9.1-19.4,43-19.4,43l17.4,10.9c0,0,16.6-26,18.4-36.6&#xA;&#9;&#9;S325.2,157.9,325.2,157.9z" style="fill: rgb(104, 225, 253);"/>
	<path class="st1_construction-worker-13" d="M401.7,228.7l-1.2,85.4l35.8,42.6l-7.8,17.6c0,0-55.6-32-65.1-45.2s-10.9-45-10.9-45l-31.1,31.2l-12,60.3&#xA;&#9;&#9;l-23.7-1.3c0,0,3-42.2,3-60.7s47-82,47-82L401.7,228.7z"/>
	<path class="st1_construction-worker-13" d="M309.5,376.3L309.5,376.3l-23.8-1.3c-0.2,0-0.4-0.1-0.5-0.2c-0.1-0.1-0.2-0.3-0.2-0.5c0-0.4,3-42.4,3-60.7&#xA;&#9;&#9;c0-18.5,45.2-79.8,47.2-82.4c0.1-0.2,0.3-0.3,0.5-0.3l65.9-3c0.2,0,0.4,0.1,0.5,0.2c0.1,0.1,0.2,0.3,0.2,0.5l-1.2,85.1l35.6,42.4&#xA;&#9;&#9;c0.2,0.2,0.2,0.5,0.1,0.7l-7.8,17.6c-0.1,0.2-0.2,0.3-0.4,0.4c-0.2,0.1-0.4,0-0.6,0c-2.3-1.3-55.8-32.3-65.3-45.4&#xA;&#9;&#9;c-8.4-11.7-10.5-37.1-10.9-43.8l-29.9,30l-11.9,60.1C310.1,376.1,309.8,376.3,309.5,376.3z M286.5,373.7l22.4,1.2l11.8-59.7&#xA;&#9;&#9;c0-0.1,0.1-0.3,0.2-0.4l31.1-31.2c0.2-0.2,0.5-0.3,0.7-0.2c0.3,0.1,0.4,0.3,0.5,0.6c0,0.3,1.5,31.7,10.7,44.6&#xA;&#9;&#9;c8.7,12.1,57.8,41,64.2,44.6l7.3-16.5L400,314.5c-0.1-0.1-0.2-0.3-0.2-0.5l1.2-84.6l-64.9,2.9c-3.3,4.5-46.7,63.9-46.7,81.3&#xA;&#9;&#9;C289.5,330.6,286.9,368.1,286.5,373.7L286.5,373.7z"/>
	<path class="st2_construction-worker-13 targetColor" d="M400.1,138.7c-18.8-9.5-67.3-12.1-74.4,2.4c-5.6,11.5,11.4,72,11.4,72l59.9,12.4&#xA;&#9;&#9;C397.1,225.5,409.5,143.4,400.1,138.7z" style="fill: rgb(104, 225, 253);"/>
	<polygon class="st1_construction-worker-13" points="329.7,242.8 335.5,183.5 403.4,188 401.6,237.1 &#9;"/>
	<path class="st1_construction-worker-13" d="M329.7,243.5c-0.4,0-0.7-0.3-0.7-0.7c0,0,0-0.1,0-0.1l5.8-59.3c0-0.4,0.4-0.7,0.7-0.6l67.9,4.5&#xA;&#9;&#9;c0.4,0,0.7,0.3,0.7,0.7c0,0,0,0,0,0l-1.8,49.2c0,0.4-0.3,0.6-0.6,0.7L329.7,243.5L329.7,243.5z M336.1,184.2l-5.6,57.8l70.5-5.6&#xA;&#9;&#9;l1.7-47.9L336.1,184.2z"/>
	<path class="st0_construction-worker-13" d="M356.2,129.2l1.3,12.6c0,0,3,6.7,10.8,3.4c4.6-2,7.6-6.4,7.9-11.4l-2.5-22.7c0,0-6.6-2.2-7.1-15.6&#xA;&#9;&#9;c0,0-7.8,0-20.2,0.6c0,0-1.7,20.9,0.4,27C348.9,129.4,356.2,129.2,356.2,129.2z"/>
	<path class="st1_construction-worker-13" d="M364.1,146.9c-5.2,0-7.3-4.7-7.3-4.7c0-0.1,0-0.1-0.1-0.2l-1.2-12c-2-0.1-7.6-1-9.4-6.5&#xA;&#9;&#9;c-2.1-6.2-0.5-26.5-0.4-27.3c0-0.4,0.3-0.6,0.7-0.7c12.2-0.5,20.2-0.6,20.2-0.6l0,0c0.4,0,0.7,0.3,0.7,0.7&#xA;&#9;&#9;c0.5,12.8,6.5,14.9,6.6,15c0.3,0.1,0.5,0.3,0.5,0.6l2.5,22.7c0,0.2-0.2,8.6-8.4,12.1C367.2,146.6,365.7,146.9,364.1,146.9z&#xA;&#9;&#9; M358.1,141.7c0.4,0.8,3.2,5.8,9.8,2.9c4.3-1.9,7.2-6,7.5-10.7l-2.5-22.2c-1.5-0.8-6.5-4.1-7.1-15.4c-2.1,0-9,0.1-18.9,0.5&#xA;&#9;&#9;c-0.3,3.5-1.4,20.8,0.4,26.1c1.9,5.5,8.4,5.5,8.7,5.5c0.4,0,0.7,0.3,0.7,0.6L358.1,141.7z"/>
	<path class="st0_construction-worker-13" d="M371.3,111.7c0.1-1.2,0.5-2.3,1.3-3.2c1.9-2.2,5.9-3.7,7.7-0.6c2.9,4.8-2.3,11.1-7.5,9.8"/>
	<path class="st1_construction-worker-13" d="M374.2,118.6c-0.5,0-1.1-0.1-1.6-0.2c-0.4-0.1-0.6-0.5-0.5-0.9c0,0,0,0,0,0c0.1-0.4,0.5-0.6,0.9-0.5&#xA;&#9;&#9;c2.4,0.5,4.8-0.5,6.2-2.5c1.5-1.8,1.7-4.2,0.5-6.2c-0.4-0.8-1.2-1.3-2.1-1.3c-1.7,0-3.4,0.8-4.5,2.1c-0.7,0.8-1.1,1.7-1.1,2.7&#xA;&#9;&#9;c0,0.4-0.4,0.7-0.8,0.7s-0.7-0.4-0.7-0.8c0.1-1.3,0.6-2.6,1.5-3.6c1.4-1.7,3.5-2.6,5.7-2.6c1.3,0.1,2.5,0.8,3.2,2&#xA;&#9;&#9;c1.4,2.5,1.2,5.6-0.6,7.8C378.9,117.3,376.6,118.5,374.2,118.6z"/>
	<path class="st1_construction-worker-13" d="M356.8,135.3c2.7-0.7,5.1-2.3,6.9-4.4c1.5-1.6,2.1-3.9,1.5-6.1c0,0-3.5,4.6-9,4.4L356.8,135.3z"/>
	<path class="st1_construction-worker-13" d="M356.8,136c-0.2,0-0.3,0-0.4-0.1c-0.2-0.1-0.3-0.3-0.3-0.5l-0.6-6.1c0-0.2,0-0.4,0.2-0.6&#xA;&#9;&#9;c0.1-0.1,0.3-0.2,0.5-0.2h0.2c5,0,8.1-4.1,8.2-4.1c0.1-0.2,0.4-0.3,0.6-0.3c0.3,0,0.5,0.2,0.6,0.4c0.7,2.4,0.1,5-1.6,6.8&#xA;&#9;&#9;c-1.9,2.3-4.4,3.9-7.3,4.6L356.8,136z M357,129.9l0.5,4.5c2.2-0.8,4.2-2.2,5.8-4c1-1.1,1.6-2.6,1.5-4.1&#xA;&#9;&#9;C362.7,128.4,359.9,129.7,357,129.9L357,129.9z"/>
	<path class="st1_construction-worker-13" d="M354,118.8c-0.7,0-1.3-0.2-1.8-0.6c-1.3-1.1,0.4-5.4,2.1-8.8c0.2-0.3,0.6-0.5,0.9-0.3c0.3,0.2,0.5,0.6,0.3,0.9&#xA;&#9;&#9;c-1.6,3.2-2.7,6.6-2.4,7.2c0.5,0.4,2.2,0.1,3.2-0.3c0.4-0.1,0.8,0,0.9,0.4c0,0,0,0,0,0c0.2,0.4,0,0.8-0.4,0.9c0,0,0,0,0,0&#xA;&#9;&#9;C355.9,118.6,355,118.8,354,118.8z"/>
	<ellipse class="st1_construction-worker-13" cx="348.7" cy="107.3" rx="0.8" ry="2"/>
	<ellipse class="st1_construction-worker-13" cx="361" cy="107.3" rx="0.8" ry="2"/>
	<path class="st1_construction-worker-13" d="M356.7,123.6c-1.6,0-3.2-0.4-4.7-1.2c-0.3-0.2-0.4-0.6-0.2-1s0.6-0.4,1-0.2c3,1.6,6.6,1.3,9.2-0.9&#xA;&#9;&#9;c0.3-0.2,0.7-0.2,1,0.1c0,0,0,0,0,0c0.2,0.3,0.2,0.8-0.1,1c0,0,0,0,0,0C361,122.9,358.9,123.6,356.7,123.6z"/>
	<path class="st1_construction-worker-13" d="M342.1,188.2c0,0-4.6-33.3,1-56.3l7.7-0.8c0,0-3.5,23.5-0.2,59.6L342.1,188.2z"/>
	<path class="st1_construction-worker-13" d="M350.7,191.4c-0.1,0-0.1,0-0.2,0l-8.5-2.6c-0.3-0.1-0.5-0.3-0.5-0.6c0-0.3-4.5-33.7,1-56.6&#xA;&#9;&#9;c0.1-0.3,0.3-0.5,0.6-0.5l7.7-0.8c0.2,0,0.4,0.1,0.6,0.2c0.1,0.2,0.2,0.4,0.2,0.6c0,0.2-3.5,23.9-0.2,59.4&#xA;&#9;&#9;C351.4,191.1,351.1,191.4,350.7,191.4C350.7,191.5,350.7,191.5,350.7,191.4L350.7,191.4z M342.8,187.6l7.1,2.1&#xA;&#9;&#9;c-2.8-31.3-0.4-53.3,0.1-57.9l-6.3,0.6C338.7,153.7,342.3,183.6,342.8,187.6L342.8,187.6z"/>
	<path class="st1_construction-worker-13" d="M381.6,132.8c-5.3,20.3-7.9,41.1-7.9,62.1l8.5-0.8c0,0-0.6-30.2,8.5-58.6L381.6,132.8z"/>
	<path class="st1_construction-worker-13" d="M373.7,195.6c-0.2,0-0.3-0.1-0.5-0.2c-0.1-0.1-0.2-0.3-0.2-0.5c0-21,2.6-41.9,7.9-62.3&#xA;&#9;&#9;c0.1-0.2,0.2-0.3,0.3-0.4c0.2-0.1,0.4-0.1,0.5-0.1l9.1,2.7c0.2,0.1,0.3,0.2,0.4,0.3c0.1,0.2,0.1,0.4,0,0.5&#xA;&#9;&#9;c-8.9,27.9-8.5,58.1-8.5,58.4c0,0.4-0.3,0.7-0.6,0.7L373.7,195.6L373.7,195.6z M382.1,133.7c-5,19.8-7.6,40.1-7.7,60.4l7.1-0.7&#xA;&#9;&#9;c0-4.5,0.2-31.8,8.3-57.5L382.1,133.7z"/>
	<path class="st0_construction-worker-13" d="M379.5,102.3c0,0.4-30.6,0.7-39.2,0.8c-1,0-1.8-0.9-1.8-1.9c0-0.1,0-0.3,0.1-0.4l0,0c0.2-0.8,0.9-1.4,1.7-1.4&#xA;&#9;&#9;h4.7c0,0-1.2-15.6,14.8-17.7S379.4,93.3,379.5,102.3z"/>
	<path class="st1_construction-worker-13" d="M340.3,103.8c-0.7,0-1.4-0.3-1.9-0.9c-0.5-0.6-0.7-1.5-0.5-2.3c0.2-1.2,1.2-2,2.4-2h3.9&#xA;&#9;&#9;c0-3.3,1-15.8,15.4-17.7c5.7-0.7,10.3,0.4,13.8,3.4c6,5.2,6.8,14.3,6.8,18l0,0c0,0.2-0.1,0.4-0.2,0.5&#xA;&#9;&#9;C379.8,103.1,379.4,103.4,340.3,103.8L340.3,103.8z M340.3,100c-0.5,0-0.9,0.4-1,0.9c-0.1,0.4,0,0.8,0.2,1.1&#xA;&#9;&#9;c0.2,0.2,0.5,0.4,0.8,0.4l0,0c21.2-0.2,35.6-0.4,38.5-0.7c-0.1-3.8-1-11.8-6.3-16.3c-3.1-2.7-7.4-3.8-12.7-3.1&#xA;&#9;&#9;c-15.1,2-14.2,16.4-14.2,17c0,0.2,0,0.4-0.2,0.6c-0.1,0.1-0.3,0.2-0.5,0.2L340.3,100z"/>
	<path class="st0_construction-worker-13" d="M351.1,99.3c0,0-0.5-9.2,2.8-15c2.2-4,8.4-4.9,9.9-3.2c0.9,1-3.1,3-4.3,7.7c-0.7,3-0.9,10.6-0.9,10.6"/>
	<path class="st1_construction-worker-13" d="M351.1,100c-0.4,0-0.7-0.3-0.7-0.7c0-0.4-0.5-9.4,2.9-15.4c1.6-2.5,4.2-4.1,7.1-4.3c1.8-0.2,3.2,0.2,4,1&#xA;&#9;&#9;s0,1.9-1,3c-1.5,1.5-2.6,3.3-3.2,5.3c-0.7,2.8-0.8,10.3-0.8,10.4c0,0.4-0.3,0.7-0.7,0.7c0,0,0,0-0.1,0c-0.4,0-0.7-0.3-0.7-0.7&#xA;&#9;&#9;c0,0,0,0,0,0c0-0.3,0.1-7.7,0.9-10.7c0.6-2.2,1.8-4.3,3.5-5.9c0.3-0.4,0.7-0.8,0.9-1.2c-0.8-0.5-1.8-0.6-2.7-0.4&#xA;&#9;&#9;c-2.4,0.2-4.7,1.5-6,3.6c-3.2,5.6-2.7,14.5-2.7,14.6C351.8,99.6,351.5,100,351.1,100L351.1,100z"/>
	<path class="st1_construction-worker-13" d="M378.3,100H345c-0.4,0-0.7-0.4-0.6-0.8c0-0.3,0.3-0.6,0.6-0.6h33.3c0.4,0,0.7,0.4,0.6,0.8&#xA;&#9;&#9;C378.9,99.7,378.6,100,378.3,100L378.3,100z"/>
	<path class="st1_construction-worker-13" d="M335.5,184.2c-0.3,0-0.6-0.2-0.7-0.6c-0.2-1-4.4-25.2-2.3-37.5c0.1-0.4,0.5-0.6,0.9-0.5&#xA;&#9;&#9;c0.3,0.1,0.5,0.4,0.5,0.7c-2.1,12.1,2.3,36.8,2.3,37c0.1,0.4-0.2,0.7-0.6,0.8c0,0,0,0,0,0L335.5,184.2z"/>
	<path class="st0_construction-worker-13" d="M361.3,232.8c-0.6,0-1.2,0-1.9-0.1c-10.5-0.9-18.3-10.1-17.6-20.6l1.1-17.9c0-0.4,0.3-0.7,0.7-0.7&#xA;&#9;&#9;c0,0,0,0,0.1,0l37.2,4.4c0.4,0,0.6,0.4,0.6,0.7l-0.8,15.5C380.2,224.6,371.7,232.7,361.3,232.8L361.3,232.8z M344.2,195l-1,17.2&#xA;&#9;&#9;c-0.6,10,7.1,18.5,17.1,19.1c10,0.6,18.5-7.1,19.1-17.1l0.7-14.8L344.2,195z"/>
	<path class="st0_construction-worker-13" d="M315.6,354l-31.3-5.1l-1.3,45.4c0,0-19.1,6.2-18.9,9.7c0.2,5.1,43.8,3,43.8,3L315.6,354z"/>
	<path class="st1_construction-worker-13" d="M289.2,408.1h-3.1c-22.5-0.2-22.6-2.9-22.7-4.1c0-0.9,1.2-4.4,18.9-10.2l1.3-44.9c0-0.2,0.1-0.4,0.3-0.5&#xA;&#9;&#9;c0.2-0.1,0.4-0.2,0.6-0.2l31.3,5.1c0.4,0.1,0.7,0.4,0.6,0.8l-7.7,53c-0.1,0.3-0.3,0.6-0.7,0.6C307.8,407.7,298.9,408.1,289.2,408.1&#xA;&#9;&#9;z M285,349.8l-1.3,44.6c0,0.3-0.2,0.6-0.5,0.7c-8.9,2.9-18.5,7.1-18.4,8.9c0,0.2,0.7,2.5,21.3,2.7c9.3,0.1,18.7-0.3,21.2-0.4&#xA;&#9;&#9;l7.5-51.7L285,349.8z"/>
	<path class="st0_construction-worker-13" d="M417.9,331.7l-20.6,26.2l33.1,25.8c0,0-6.2,14.8-4.5,16.8s28.5-24.8,28.5-24.8L417.9,331.7z"/>
	<path class="st1_construction-worker-13" d="M426.2,401.3L426.2,401.3c-0.3,0-0.6-0.1-0.8-0.4c-1.7-2,2.1-12.2,4.1-17l-32.7-25.5c-0.2-0.1-0.2-0.3-0.3-0.5&#xA;&#9;&#9;c0-0.2,0-0.4,0.1-0.5l20.6-26.2c0.1-0.2,0.3-0.3,0.6-0.3c0.2,0,0.4,0.1,0.6,0.3l36.5,44c0.3,0.3,0.2,0.7,0,1&#xA;&#9;&#9;C449.1,382.1,429.6,401.3,426.2,401.3z M398.3,357.8l32.5,25.4c0.3,0.2,0.4,0.5,0.2,0.9c-3.1,7.4-5.1,14.4-4.7,15.8&#xA;&#9;&#9;c2.5-0.7,15.4-12.6,27.1-24.2L418,332.9L398.3,357.8z"/>
	<path class="st3_construction-worker-13" d="M311.2,364.5h-0.1l-25.4-3.8c-0.4-0.1-0.7-0.4-0.6-0.8s0.4-0.7,0.8-0.6l25.5,3.8c0.4,0.1,0.6,0.4,0.6,0.8&#xA;&#9;&#9;C311.8,364.3,311.5,364.5,311.2,364.5L311.2,364.5z"/>
	<path class="st3_construction-worker-13" d="M310.2,370h-0.1l-23.9-3.2c-0.4,0-0.7-0.4-0.6-0.8s0.4-0.7,0.8-0.6l23.9,3.2c0.4,0.1,0.6,0.4,0.6,0.8&#xA;&#9;&#9;C310.8,369.8,310.6,370,310.2,370L310.2,370z"/>
	<path class="st3_construction-worker-13" d="M410,362.6c-0.2,0-0.3-0.1-0.4-0.1c-0.3-0.2-0.4-0.7-0.1-1c0,0,0,0,0,0L424,343c0.2-0.3,0.7-0.4,1-0.1&#xA;&#9;&#9;c0,0,0,0,0,0c0.3,0.2,0.4,0.7,0.1,1l-14.6,18.5C410.4,362.6,410.2,362.6,410,362.6z"/>
	<path class="st3_construction-worker-13" d="M414.7,364.5c-0.2,0-0.3-0.1-0.5-0.2c-0.3-0.3-0.3-0.7-0.1-1l13.4-15.9c0.2-0.3,0.7-0.4,1-0.1c0,0,0,0,0,0&#xA;&#9;&#9;c0.3,0.2,0.3,0.7,0.1,1c0,0,0,0,0,0l-13.4,15.9C415.1,364.4,414.9,364.5,414.7,364.5z"/>
</g>
<g id="Cart_construction-worker-13">
	<path class="st1_construction-worker-13" d="M230.9,280.7c0,0-42.4-0.9-59.3,4.2l12,29.7C183.6,314.7,230.4,300.2,230.9,280.7z"/>
	<path class="st1_construction-worker-13" d="M183.6,315.4c-0.3,0-0.5-0.2-0.6-0.4l-12-29.7c-0.1-0.2-0.1-0.4,0-0.6c0.1-0.2,0.2-0.3,0.4-0.4&#xA;&#9;&#9;c16.9-5.1,57.8-4.3,59.6-4.2c0.2,0,0.4,0.1,0.5,0.2c0.1,0.1,0.2,0.3,0.2,0.5c-0.2,8.3-8.4,16.7-24.2,24.9&#xA;&#9;&#9;c-7.6,3.8-15.5,7.1-23.6,9.7C183.8,315.4,183.7,315.4,183.6,315.4z M172.5,285.4l11.5,28.4c5.4-1.8,44.6-15.2,46.2-32.4&#xA;&#9;&#9;C224.6,281.3,188.4,281,172.5,285.4L172.5,285.4z"/>
	<path class="st1_construction-worker-13" d="M46.9,308c0,0,12.6-7,34.6-9l4.3,23.5L46.9,308z"/>
	<path class="st1_construction-worker-13" d="M85.8,323.2c-0.1,0-0.2,0-0.2,0l-38.9-14.5c-0.3-0.1-0.4-0.3-0.5-0.6c0-0.3,0.1-0.5,0.4-0.7&#xA;&#9;&#9;c0.1-0.1,12.9-7.1,34.9-9c0.4,0,0.7,0.2,0.8,0.6l4.3,23.5c0,0.2,0,0.5-0.2,0.7C86.1,323.2,86,323.2,85.8,323.2z M48.7,307.9&#xA;&#9;&#9;l36.2,13.5L81,299.8C63.8,301.4,52.5,306.1,48.7,307.9z"/>
	<path class="st1_construction-worker-13" d="M224.4,317.4l-1,45.6c-0.1,4.5-3.3,8.2-7.7,9l-26.6,4.7c-3.9,0.7-7.7-1.1-9.7-4.5l-12.1-21.3l7.1-3.2&#xA;&#9;&#9;l10.3,18.7c1.2,2.1,3.6,3.3,6,2.9l20.4-3.5c2.7-0.5,4.7-2.8,4.8-5.5l1-35.9L224.4,317.4z"/>
	<path class="st1_construction-worker-13" d="M187.5,377.5c-3.6,0-6.9-1.9-8.7-5l-12.1-21.3c-0.1-0.2-0.1-0.4-0.1-0.6c0.1-0.2,0.2-0.3,0.4-0.4l7.1-3.3&#xA;&#9;&#9;c0.3-0.1,0.7,0,0.9,0.3l10.3,18.7c1,1.9,3.2,2.9,5.3,2.6l20.4-3.5c2.4-0.4,4.1-2.5,4.2-4.9l1-35.9c0-0.2,0.1-0.4,0.2-0.5l7.6-6.9&#xA;&#9;&#9;c0.2-0.2,0.5-0.2,0.8-0.1c0.3,0.1,0.4,0.4,0.4,0.6l-1,45.6c-0.1,4.8-3.6,8.8-8.3,9.6l-26.6,4.7C188.6,377.4,188,377.5,187.5,377.5z&#xA;&#9;&#9; M168.2,351.1l11.8,20.6c1.8,3.2,5.4,4.8,9,4.2l26.6-4.7c4-0.7,7-4.2,7.1-8.3l0.9-44l-6.2,5.6l-1,35.6c-0.1,3.1-2.3,5.7-5.4,6.2&#xA;&#9;&#9;l-20.3,3.5c-2.7,0.5-5.4-0.8-6.8-3.3l-10-18.1L168.2,351.1z"/>
	<path class="st0_construction-worker-13" d="M95.2,402l213.5-136.6c1.7-1.3,1.9-3.7,0.6-5.4l0,0c-1.3-1.7-3.7-1.9-5.4-0.6L90.5,396&#xA;&#9;&#9;c-1.7,1.3-1.9,3.7-0.7,5.3c0,0,0,0,0,0l0,0C91.2,403,93.6,403.3,95.2,402C95.2,402,95.2,402,95.2,402z"/>
	<path class="st1_construction-worker-13" d="M92.9,403.5c-2.5,0-4.5-2-4.5-4.5c0-1.4,0.6-2.7,1.7-3.6l213.6-136.7c2-1.5,4.8-1.2,6.4,0.8s1.2,4.8-0.8,6.4&#xA;&#9;&#9;l0,0L95.7,402.6C94.9,403.2,93.9,403.5,92.9,403.5z M306.4,259.3c-0.7,0-1.4,0.2-1.9,0.7L90.9,396.6c-1.3,1.1-1.5,3-0.5,4.3&#xA;&#9;&#9;c1.1,1.3,3,1.5,4.3,0.5h0.1l213.5-136.7c1.3-1.1,1.5-3,0.4-4.4c-0.5-0.6-1.2-1-2-1.1C306.7,259.3,306.5,259.3,306.4,259.3z"/>
	<path class="st0_construction-worker-13" d="M254.4,319.2l-1,45.6c-0.1,4.5-3.3,8.2-7.7,9l-26.6,4.7c-3.9,0.7-7.7-1.1-9.7-4.5l-12.1-21.3l7.1-3.2&#xA;&#9;&#9;l10.3,18.7c1.2,2.2,3.6,3.3,6.1,2.9l20.3-3.5c2.7-0.5,4.7-2.8,4.8-5.5l1-35.9L254.4,319.2z"/>
	<path class="st1_construction-worker-13" d="M217.5,379.3c-3.6,0-6.9-1.9-8.7-5.1L196.7,353c-0.1-0.2-0.1-0.4-0.1-0.6c0.1-0.2,0.2-0.3,0.4-0.4l7.1-3.2&#xA;&#9;&#9;c0.3-0.2,0.8,0,0.9,0.3l10.3,18.7c1,1.9,3.2,2.9,5.3,2.5l20.3-3.5c2.4-0.4,4.1-2.4,4.2-4.8l1-35.9c0-0.2,0.1-0.4,0.2-0.5l7.6-6.9&#xA;&#9;&#9;c0.2-0.2,0.5-0.2,0.8-0.1c0.3,0.1,0.4,0.4,0.4,0.7l-1,45.6c-0.1,4.8-3.6,8.8-8.3,9.7l-26.6,4.7&#xA;&#9;&#9;C218.7,379.3,218.1,379.3,217.5,379.3z M198.3,353l11.8,20.6c1.8,3.1,5.4,4.8,8.9,4.2l26.6-4.7c4-0.7,7-4.2,7.1-8.3l0.9-43.9&#xA;&#9;&#9;l-6.1,5.5l-1,35.6c-0.1,3.1-2.4,5.7-5.4,6.2l-20.3,3.5c-2.7,0.5-5.5-0.8-6.8-3.3l-10-18.1L198.3,353z"/>
	<path class="st0_construction-worker-13" d="M75.2,302.2h0.3c1.9-4.5,4-10.7,7.9-14c3-2.5,8.2-2.6,10.2,0.7c1.3-2.5,2.6-5,4.8-6.8s5.3-2.5,7.7-1.1&#xA;&#9;&#9;c-1.4-0.9,5.6-6.5,6.4-6.8c3-1.4,6.2-1.2,9.3-0.9c-0.5-5.9,12.4-11.6,17-13.4c7.8-3.2,21.5-4.8,25.8,4.3c2.4-1.6,4.9-3.6,7.9-4.1&#xA;&#9;&#9;s6.6,1.1,7.2,4.1c5.2-1.4,5.7,0.3,8.3,3.5c1.4,1.7,5.7,1,7.8,2c3,1.3,5,4.2,5.1,7.5c4.8-1.6,10.4,0.2,13.9,3.8&#xA;&#9;&#9;c7.3,7.5,6.7,19.2,2.3,27.8c-5.7,11.2-15.8,21.4-26.4,28.1c-13,8.1-27.9,12.6-43,15.1c-15.6,2.6-31.9,3.2-47-1.5&#xA;&#9;&#9;c-10-3-19-8.5-26.2-16.1c-3.5-3.8-7.2-7.2-10.6-10.8c-2.9-3.3-3.8-7.9-2.3-12.1C63.6,306.1,69.4,302.7,75.2,302.2z"/>
	<path class="st3_construction-worker-13" d="M125.3,354.7c-8.5,0.1-16.9-1.1-25-3.5c-10.1-3-19.3-8.6-26.5-16.3c-1.8-2-3.7-3.9-5.6-5.7&#xA;&#9;&#9;c-1.7-1.7-3.4-3.4-5-5.1c-3.1-3.5-4-8.4-2.4-12.8c2.1-5.3,7.7-9.2,14.1-9.7l0.7-1.6c1.8-4.4,3.8-9.4,7.3-12.3c2-1.6,4.5-2.3,7-1.9&#xA;&#9;&#9;c1.3,0.2,2.6,0.8,3.5,1.8c1.1-2.3,2.6-4.3,4.4-6c2.1-1.8,4.9-2.4,7.5-1.6c1.1-2.3,6.3-6.1,6.8-6.4c2.8-1.2,5.9-1.5,8.9-1&#xA;&#9;&#9;c0.5-5.6,11-10.7,17.4-13.3c8.1-3.3,21.5-4.8,26.3,3.9l0.4-0.3c2.2-1.5,4.4-3.1,7.1-3.5c3.1-0.5,6.8,0.9,7.9,3.9&#xA;&#9;&#9;c4.3-1,5.5,0.2,7.5,2.9c0.2,0.3,0.5,0.7,0.8,1c0.6,0.8,2.3,0.9,4,1.1c1.2,0.1,2.4,0.3,3.5,0.7c3,1.3,5,4,5.5,7.2&#xA;&#9;&#9;c5-1.1,10.2,0.5,13.8,4.2c7.7,7.9,6.8,20,2.4,28.6c-5.5,10.7-15.4,21.3-26.7,28.3c-11.7,7.3-25.8,12.3-43.2,15.2&#xA;&#9;&#9;C140.4,353.9,132.9,354.6,125.3,354.7z M88.6,287.1c-1.7,0-3.4,0.6-4.7,1.7c-3.2,2.7-5.2,7.5-6.9,11.7l-0.8,2&#xA;&#9;&#9;c-0.1,0.2-0.3,0.4-0.6,0.4h-0.3l0,0c-5.9,0.5-11.2,4-13.1,8.8c-1.4,3.9-0.6,8.2,2.1,11.3c1.6,1.7,3.3,3.4,5,5.1s3.8,3.7,5.6,5.7&#xA;&#9;&#9;c7.1,7.5,16,13,25.9,15.9c13.1,4,28.4,4.5,46.7,1.4c17.2-2.9,31.2-7.8,42.7-15c11.1-7,20.8-17.3,26.2-27.8c4.1-8.1,5.1-19.5-2.2-27&#xA;&#9;&#9;c-3.5-3.6-8.8-5.1-13.2-3.6c-0.2,0.1-0.4,0-0.6-0.1c-0.2-0.1-0.3-0.3-0.3-0.6c-0.1-3-2-5.7-4.7-6.9c-1-0.3-2.1-0.5-3.1-0.5&#xA;&#9;&#9;c-1.9-0.2-3.9-0.4-5-1.6c-0.3-0.4-0.6-0.7-0.8-1c-1.9-2.4-2.6-3.3-6.7-2.2c-0.2,0-0.4,0-0.6-0.1c-0.2-0.1-0.3-0.3-0.3-0.5&#xA;&#9;&#9;c-0.6-2.6-3.9-4-6.5-3.5c-2.4,0.4-4.5,1.9-6.5,3.3c-0.4,0.2-0.7,0.5-1.1,0.7c-0.3,0.2-0.7,0.1-1-0.2c0,0,0-0.1,0-0.1&#xA;&#9;&#9;c-2.1-4.6-10.8-9.7-24.9-3.9c-10.7,4.4-16.9,9.1-16.6,12.7c0,0.2-0.1,0.4-0.2,0.6c-0.2,0.1-0.4,0.2-0.6,0.2c-2.9-0.4-6-0.5-8.9,0.8&#xA;&#9;&#9;c-0.9,0.5-5.7,4.5-6.1,5.7c0.2,0.3,0.2,0.7-0.1,1c-0.2,0.2-0.5,0.2-0.8,0.1l0,0c-2.2-1.3-5.2-0.4-6.9,1c-2.1,1.7-3.4,4.3-4.6,6.5&#xA;&#9;&#9;c-0.1,0.2-0.3,0.4-0.6,0.4c-0.3,0-0.5-0.1-0.6-0.4c-0.7-1.1-1.9-1.9-3.3-2.1C89.3,287.2,88.9,287.1,88.6,287.1z M75.2,302.2&#xA;&#9;&#9;L75.2,302.2z"/>
	<path class="st0_construction-worker-13" d="M216.4,338.6c0,0,12.7-34,10.8-48.6c0,0-17.8,21.4-80.8,31c-54.8,8.3-96-9.6-96-9.6s43.7,56.4,77.9,70.8&#xA;&#9;&#9;L216.4,338.6z"/>
	<path class="st1_construction-worker-13" d="M128.3,382.9c-0.1,0-0.2,0-0.3-0.1c-34-14.3-77.8-70.4-78.2-71c-0.2-0.3-0.2-0.8,0.1-1&#xA;&#9;&#9;c0.2-0.2,0.5-0.2,0.7-0.1c0.4,0.2,41.7,17.7,95.6,9.5c61.9-9.4,80.2-30.5,80.4-30.7c0.2-0.2,0.5-0.3,0.8-0.2&#xA;&#9;&#9;c0.3,0.1,0.5,0.3,0.5,0.6c1.8,14.7-10.4,47.6-10.9,49c-0.1,0.2-0.2,0.3-0.4,0.4l-88.1,43.5C128.6,382.9,128.4,382.9,128.3,382.9z&#xA;&#9;&#9; M52.7,313c8.3,10.3,45.8,55.5,75.7,68.3l87.5-43.2c1.2-3.1,11.6-32.1,10.8-46.4c-4.8,4.7-25.4,21.7-80.1,30&#xA;&#9;&#9;C99.8,328.8,62.5,316.7,52.7,313z M216.4,338.6L216.4,338.6z"/>
	<circle class="st1_construction-worker-13" cx="96.3" cy="398.4" r="21.4"/>
	<path class="st1_construction-worker-13" d="M96.3,420.5c-12.2,0-22.1-9.9-22.1-22.1s9.9-22.1,22.1-22.1s22.1,9.9,22.1,22.1l0,0&#xA;&#9;&#9;C118.4,410.6,108.5,420.5,96.3,420.5z M96.3,377.7c-11.4,0-20.7,9.2-20.7,20.7c0,11.4,9.2,20.7,20.7,20.7s20.7-9.2,20.7-20.7&#xA;&#9;&#9;c0,0,0,0,0,0C117,387,107.7,377.7,96.3,377.7z"/>
	<circle class="st0_construction-worker-13" cx="96.3" cy="398.4" r="14"/>
	<path class="st1_construction-worker-13" d="M96.3,413.1c-8.1,0-14.7-6.6-14.7-14.7s6.6-14.7,14.7-14.7s14.7,6.6,14.7,14.7&#xA;&#9;&#9;C111,406.5,104.5,413.1,96.3,413.1z M96.3,385.1c-7.3,0-13.3,5.9-13.3,13.3c0,7.3,5.9,13.3,13.3,13.3c7.3,0,13.3-5.9,13.3-13.3&#xA;&#9;&#9;c0,0,0,0,0,0C109.6,391.1,103.7,385.2,96.3,385.1L96.3,385.1z"/>
	<path class="st0_construction-worker-13" d="M97.7,402.1L424,239.3c1.8-1,2.5-3.3,1.5-5.2l0,0c-1-1.8-3.3-2.5-5.2-1.5L93.9,395.4c-1.8,1-2.5,3.3-1.5,5.2&#xA;&#9;&#9;c0,0,0,0,0,0l0,0C93.5,402.4,95.8,403.1,97.7,402.1C97.6,402.1,97.6,402.1,97.7,402.1z"/>
	<path class="st1_construction-worker-13" d="M95.8,403.3c-2.5,0-4.5-2-4.6-4.5c0-1.7,0.9-3.2,2.3-4L420,232c1-0.6,2.3-0.7,3.4-0.4c2.4,0.7,3.8,3.2,3.1,5.6&#xA;&#9;&#9;c-0.3,1.2-1.1,2.1-2.1,2.7L98,402.7C97.3,403.1,96.6,403.3,95.8,403.3z M422.2,232.9c-0.5,0-1,0.1-1.5,0.4L94.3,396.1&#xA;&#9;&#9;c-1.4,0.9-1.9,2.8-0.9,4.3c0.8,1.3,2.5,1.8,3.9,1.1l0,0l326.4-162.8c1.5-0.8,2-2.7,1.2-4.2C424.3,233.5,423.3,232.9,422.2,232.9&#xA;&#9;&#9;L422.2,232.9z"/>
	<path class="st0_construction-worker-13" d="M114.2,325.8c23.6,0,47-3.8,69.5-11.1c33-10.8,52.5-25.5,53.3-26.2c2.2-1.6,2.6-4.7,0.9-6.9&#xA;&#9;&#9;c-1.6-2.2-4.7-2.6-6.9-0.9l0,0c-0.4,0.3-19.4,14.5-50.8,24.8c-41.6,13.6-86.5,14-128.4,1.2c-2.6-0.7-5.3,0.8-6,3.4&#xA;&#9;&#9;c-0.7,2.5,0.7,5.2,3.2,6C70.1,322.5,92.1,325.8,114.2,325.8z"/>
	<path class="st1_construction-worker-13" d="M114.2,326.5c-22.1,0-44.2-3.3-65.3-9.7c-3-0.9-4.7-4-3.8-7c0.9-3,4-4.7,7-3.8c41.8,12.7,86.5,12.3,128-1.2&#xA;&#9;&#9;c31.1-10.1,49.8-24.1,50.6-24.6c2.5-1.9,6-1.4,7.9,1.1s1.4,6-1.1,7.9c-0.8,0.6-20.4,15.4-53.5,26.3&#xA;&#9;&#9;C161.4,322.8,137.8,326.5,114.2,326.5z M50.4,307.2c-2.3,0-4.2,1.9-4.2,4.2c0,1.8,1.2,3.4,3,4c21.1,6.4,42.9,9.6,64.9,9.7&#xA;&#9;&#9;c23.5,0,46.9-3.7,69.2-11.1c32.9-10.8,52.2-25.4,53.1-26c1.8-1.5,2-4.1,0.6-5.9c-1.4-1.7-3.9-2-5.6-0.8c-0.8,0.6-19.7,14.6-51,24.9&#xA;&#9;&#9;c-41.8,13.6-86.7,14-128.8,1.2C51.2,307.3,50.8,307.2,50.4,307.2z"/>
	<path class="st3_construction-worker-13" d="M85,301c-0.1,0-0.1,0-0.2,0c-0.4-0.1-0.6-0.5-0.5-0.9c0,0,0,0,0,0c0.9-3,2.1-6,4.6-8c3.5-2.8,8.3-2.4,12.9-1.8&#xA;&#9;&#9;l6.4,0.9c0.4,0,0.7,0.3,0.7,0.7c0,0.4-0.3,0.7-0.7,0.7c0,0-0.1,0-0.1,0l-6.4-0.9c-4.3-0.6-8.8-1-11.9,1.5c-2.2,1.7-3.2,4.6-4.1,7.3&#xA;&#9;&#9;C85.6,300.8,85.3,301,85,301z"/>
	<path class="st3_construction-worker-13" d="M177.7,286.6c-0.2,0-0.4-0.1-0.5-0.2c-7.6-8-19.5-10-29.4-5c-0.3,0.2-0.8,0.1-0.9-0.3c0,0,0,0,0,0&#xA;&#9;&#9;c-0.2-0.3-0.1-0.7,0.3-0.9c0,0,0,0,0,0c10.4-5.3,23-3.1,31,5.3c0.3,0.3,0.2,0.7,0,1C178,286.6,177.8,286.7,177.7,286.6L177.7,286.6&#xA;&#9;&#9;z"/>
	<path class="st3_construction-worker-13" d="M127.4,300.8c-0.2,0-0.4-0.1-0.6-0.3c-0.2-0.3-0.2-0.7,0.1-1c0,0,0,0,0,0c4.4-3.3,9.8-5.1,15.3-5.2&#xA;&#9;&#9;c0.4,0,0.7,0.3,0.7,0.7c0,0,0,0,0,0c0,0.4-0.3,0.7-0.7,0.7c-5.2,0.1-10.3,1.9-14.5,4.9C127.7,300.8,127.6,300.8,127.4,300.8z"/>
	<path class="st0_construction-worker-13" d="M205.7,288.5c-0.9-1.7-2.7-2.7-4.6-3.4c-2.9-1.1-6-1.9-9.2-2.1"/>
	<path class="st3_construction-worker-13" d="M205.7,289.1c-0.3,0-0.5-0.2-0.6-0.4c-0.8-1.6-2.7-2.5-4.2-3.1c-2.9-1.1-5.9-1.8-9-2.1c-0.4,0-0.7-0.4-0.6-0.8&#xA;&#9;&#9;c0-0.4,0.4-0.7,0.8-0.6c3.2,0.3,6.4,1,9.4,2.2c1.8,0.7,3.9,1.7,4.9,3.7c0.2,0.3,0,0.8-0.3,1C205.9,289.1,205.8,289.2,205.7,289.1z"/>
</g>
<g id="Left_Hand_construction-worker-13">
	<path class="st0_construction-worker-13" d="M411,220l-30.8,35.9c0,0,2.3,10.6,0.2,11.6s-13,4.6-14.7,1.8c-1-2-1.4-4.2-1.1-6.4l-2.8-0.2&#xA;&#9;&#9;c0,0-1.1-4.5,1.1-7.2s31.8-42.3,31.8-42.3"/>
	<path class="st1_construction-worker-13" d="M368.8,271c-1.7,0-3.1-0.4-3.7-1.4c-1-1.9-1.5-4-1.3-6.1l-2.1-0.1c-0.3,0-0.6-0.2-0.6-0.5&#xA;&#9;&#9;c0-0.2-1.1-4.9,1.3-7.8c2.2-2.6,31.5-41.9,31.8-42.3c0.2-0.3,0.7-0.4,1-0.2c0.3,0.2,0.4,0.7,0.2,1c0,0,0,0.1-0.1,0.1&#xA;&#9;&#9;c-1.2,1.6-29.6,39.7-31.8,42.3c-1.5,1.9-1.3,4.9-1.1,6l2.3,0.2c0.2,0,0.4,0.1,0.5,0.3c0.1,0.2,0.2,0.4,0.1,0.6&#xA;&#9;&#9;c-0.3,2,0.1,4.1,1,5.9c1.2,2,11-0.7,13.8-2c0.8-0.4,0.6-5.5-0.6-10.8c0-0.2,0-0.5,0.2-0.6l30.8-35.9c0.3-0.3,0.7-0.3,1-0.1&#xA;&#9;&#9;c0.3,0.3,0.3,0.7,0.1,1L381,256.1c0.7,3.5,2,11-0.3,12C379.7,268.5,373.2,271,368.8,271z"/>
	<path class="st2_construction-worker-13 targetColor" d="M400.1,138.7c0,0,33.2,46.5,33.6,55.2s-44.1,54-44.1,54l-17.7-13.8c0,0,31.5-38.9,31-42.8s-15.6-25-15.6-25&#xA;&#9;&#9;S383.7,142.7,400.1,138.7z" style="fill: rgb(104, 225, 253);"/>
	<path class="st1_construction-worker-13" d="M402.8,192c-0.2,0-0.5-0.1-0.6-0.3l-14.1-21.9c-0.2-0.3-0.1-0.8,0.2-1c0.3-0.2,0.8-0.1,1,0.2l14.1,22&#xA;&#9;&#9;c0.2,0.3,0.2,0.7-0.1,1c0,0,0,0-0.1,0C403,192,402.9,192,402.8,192z"/>
</g>
</svg>